HIERARCHY
ROOT newVegas:Hips
{
	OFFSET 0.000000 96.479958 0.000000
	CHANNELS 6 Xposition Yposition Zposition Xrotation Yrotation Zrotation
	JOINT newVegas:Pelvis
	{
		OFFSET 0.000000 0.000000 0.000000
		CHANNELS 3 Xrotation Yrotation Zrotation
		JOINT newVegas:LeftUpLeg
		{
			OFFSET 18.735201 -5.666702 -4.541200
			CHANNELS 3 Xrotation Yrotation Zrotation
			JOINT newVegas:LeftLeg
			{
				OFFSET -0.021200 -31.938179 0.493100
				CHANNELS 3 Xrotation Yrotation Zrotation
				JOINT newVegas:LeftFoot
				{
					OFFSET 0.021200 -31.938179 -4.336299
					CHANNELS 3 Xrotation Yrotation Zrotation
					JOINT newVegas:LeftToeBase
					{
						OFFSET 0.943001 -26.722000 15.023500
						CHANNELS 3 Xrotation Yrotation Zrotation
						End Site
						{
							OFFSET 0.000000 30.670183 0.000000
						}
					}
				}
				JOINT newVegas:Left_PantLeg
				{
					OFFSET 0.663870 -9.044666 -1.108900
					CHANNELS 3 Xrotation Yrotation Zrotation
					End Site
					{
						OFFSET 1.415995 20.635357 0.000000
					}
				}
			}
		}
		JOINT newVegas:RightUpLeg
		{
			OFFSET -18.735201 -5.666702 -4.541200
			CHANNELS 3 Xrotation Yrotation Zrotation
			JOINT newVegas:RightLeg
			{
				OFFSET 0.018946 -31.938133 0.493100
				CHANNELS 3 Xrotation Yrotation Zrotation
				JOINT newVegas:RightFoot
				{
					OFFSET -0.018946 -31.938126 -4.336299
					CHANNELS 3 Xrotation Yrotation Zrotation
					JOINT newVegas:RightToeBase
					{
						OFFSET -0.943001 -26.722004 15.023500
						CHANNELS 3 Xrotation Yrotation Zrotation
						End Site
						{
							OFFSET 0.000000 30.670187 0.000000
						}
					}
				}
				JOINT newVegas:Right_PantLeg
				{
					OFFSET -0.661674 -9.044716 -1.108900
					CHANNELS 3 Xrotation Yrotation Zrotation
					End Site
					{
						OFFSET -1.415958 20.635269 0.000000
					}
				}
			}
		}
	}
	JOINT newVegas:Spine
	{
		OFFSET 0.000000 10.199997 -0.299500
		CHANNELS 3 Xrotation Yrotation Zrotation
		JOINT newVegas:Spine1
		{
			OFFSET 0.000000 11.900002 -1.516600
			CHANNELS 3 Xrotation Yrotation Zrotation
			JOINT newVegas:Spine2
			{
				OFFSET 0.000000 13.600006 -2.842500
				CHANNELS 3 Xrotation Yrotation Zrotation
				JOINT newVegas:Neck
				{
					OFFSET 0.000000 9.624100 -2.890100
					CHANNELS 3 Xrotation Yrotation Zrotation
					JOINT newVegas:Head
					{
						OFFSET 0.000000 14.068802 -1.351900
						CHANNELS 3 Xrotation Yrotation Zrotation
						JOINT newVegas:Hair_Back
						{
							OFFSET 0.000000 3.231903 -17.524799
							CHANNELS 3 Xrotation Yrotation Zrotation
							End Site
							{
								OFFSET 0.000000 19.849884 0.000000
							}
						}
						JOINT newVegas:Hair_Front
						{
							OFFSET 0.000000 31.260406 4.573800
							CHANNELS 3 Xrotation Yrotation Zrotation
							JOINT newVegas:Hair_Front1
							{
								OFFSET 0.000000 2.284103 11.993300
								CHANNELS 3 Xrotation Yrotation Zrotation
								JOINT newVegas:Hair_Front2
								{
									OFFSET 0.000000 2.284103 11.993300
									CHANNELS 3 Xrotation Yrotation Zrotation
									End Site
									{
										OFFSET 0.000000 12.208862 0.000000
									}
								}
							}
						}
						JOINT newVegas:Jowel
						{
							OFFSET 0.000000 -7.458206 6.864100
							CHANNELS 3 Xrotation Yrotation Zrotation
							End Site
							{
								OFFSET 0.000000 19.849884 0.000000
							}
						}
					}
				}
				JOINT newVegas:LeftShoulder
				{
					OFFSET 15.263000 10.923401 -0.547700
					CHANNELS 3 Xrotation Yrotation Zrotation
					JOINT newVegas:LeftArm
					{
						OFFSET 25.438599 -2.830597 -13.032500
						CHANNELS 3 Xrotation Yrotation Zrotation
						JOINT newVegas:LeftForeArm
						{
							OFFSET 29.960503 0.000000 0.000000
							CHANNELS 3 Xrotation Yrotation Zrotation
							JOINT newVegas:LeftHand
							{
								OFFSET 27.849251 0.000000 0.000000
								CHANNELS 3 Xrotation Yrotation Zrotation
								JOINT newVegas:LeftHandThumb1
								{
									OFFSET 4.487587 -3.305161 6.305391
									CHANNELS 3 Xrotation Yrotation Zrotation
									JOINT newVegas:LeftHandThumb2
									{
										OFFSET 5.480453 -3.164139 3.164143
										CHANNELS 3 Xrotation Yrotation Zrotation
										JOINT newVegas:LeftHandThumb3
										{
											OFFSET 5.159721 -2.978973 2.978967
											CHANNELS 3 Xrotation Yrotation Zrotation
											End Site
											{
												OFFSET 2.494507 5.926697 1.738678
											}
										}
									}
								}
								JOINT newVegas:LeftHandIndex1
								{
									OFFSET 18.578728 -0.527832 5.208049
									CHANNELS 3 Xrotation Yrotation Zrotation
									JOINT newVegas:LeftHandIndex2
									{
										OFFSET 3.192009 0.000000 0.000000
										CHANNELS 3 Xrotation Yrotation Zrotation
										JOINT newVegas:LeftHandIndex3
										{
											OFFSET 3.835129 0.000000 0.000000
											CHANNELS 3 Xrotation Yrotation Zrotation
											End Site
											{
												OFFSET -0.034599 3.816971 0.371180
											}
										}
									}
								}
								JOINT newVegas:LeftHandMiddle1
								{
									OFFSET 18.476105 0.000000 0.000000
									CHANNELS 3 Xrotation Yrotation Zrotation
									JOINT newVegas:LeftHandMiddle2
									{
										OFFSET 3.324875 0.000000 0.000000
										CHANNELS 3 Xrotation Yrotation Zrotation
										JOINT newVegas:LeftHandMiddle3
										{
											OFFSET 4.596550 0.000000 0.000000
											CHANNELS 3 Xrotation Yrotation Zrotation
											End Site
											{
												OFFSET 0.057701 4.578827 0.399218
											}
										}
									}
								}
								JOINT newVegas:LeftHandRing1
								{
									OFFSET 17.732719 0.121887 -4.201567
									CHANNELS 3 Xrotation Yrotation Zrotation
									JOINT newVegas:LeftHandRing2
									{
										OFFSET 2.733170 0.000000 0.000000
										CHANNELS 3 Xrotation Yrotation Zrotation
										JOINT newVegas:LeftHandRing3
										{
											OFFSET 3.178268 0.000000 0.000000
											CHANNELS 3 Xrotation Yrotation Zrotation
											End Site
											{
												OFFSET 0.119102 3.170624 0.185394
											}
										}
									}
								}
								JOINT newVegas:LeftHandPinky1
								{
									OFFSET 15.989624 -0.606689 -7.535461
									CHANNELS 3 Xrotation Yrotation Zrotation
									JOINT newVegas:LeftHandPinky2
									{
										OFFSET 2.538986 0.000000 0.000000
										CHANNELS 3 Xrotation Yrotation Zrotation
										JOINT newVegas:LeftHandPinky3
										{
											OFFSET 2.593102 0.000000 0.000000
											CHANNELS 3 Xrotation Yrotation Zrotation
											End Site
											{
												OFFSET -0.150902 2.584198 0.152708
											}
										}
									}
								}
							}
							JOINT newVegas:Left_Sleeve
							{
								OFFSET 0.267448 -0.649796 0.577675
								CHANNELS 3 Xrotation Yrotation Zrotation
								End Site
								{
									OFFSET 0.000000 15.991241 0.000000
								}
							}
							JOINT newVegas:Left_CapeC
							{
								OFFSET 15.715958 -8.608795 -6.935905
								CHANNELS 3 Xrotation Yrotation Zrotation
								JOINT newVegas:Left_CapeC1
								{
									OFFSET 0.000000 -8.688499 0.000000
									CHANNELS 3 Xrotation Yrotation Zrotation
									End Site
									{
										OFFSET 0.000000 8.688499 0.000000
									}
								}
							}
						}
						JOINT newVegas:Left_CapeB
						{
							OFFSET 26.118385 -8.608795 -7.079235
							CHANNELS 3 Xrotation Yrotation Zrotation
							JOINT newVegas:Left_CapeB1
							{
								OFFSET 0.000000 -8.688499 0.000000
								CHANNELS 3 Xrotation Yrotation Zrotation
								End Site
								{
									OFFSET 0.000000 8.688499 0.000000
								}
							}
						}
						JOINT newVegas:Left_CapeA
						{
							OFFSET 5.115639 -8.608795 -10.395809
							CHANNELS 3 Xrotation Yrotation Zrotation
							JOINT newVegas:Left_CapeA1
							{
								OFFSET 0.000000 -8.688499 0.000000
								CHANNELS 3 Xrotation Yrotation Zrotation
								End Site
								{
									OFFSET 0.000000 8.688499 0.000000
								}
							}
						}
					}
				}
				JOINT newVegas:RightShoulder
				{
					OFFSET -15.263000 10.923401 -0.547700
					CHANNELS 3 Xrotation Yrotation Zrotation
					JOINT newVegas:RightArm
					{
						OFFSET -25.438599 -2.830597 -13.032500
						CHANNELS 3 Xrotation Yrotation Zrotation
						JOINT newVegas:RightForeArm
						{
							OFFSET -29.960503 0.000000 0.000000
							CHANNELS 3 Xrotation Yrotation Zrotation
							JOINT newVegas:RightHand
							{
								OFFSET -27.849251 0.000000 0.000000
								CHANNELS 3 Xrotation Yrotation Zrotation
								JOINT newVegas:RightHandThumb1
								{
									OFFSET -4.487587 -3.305161 6.305391
									CHANNELS 3 Xrotation Yrotation Zrotation
									JOINT newVegas:RightHandThumb2
									{
										OFFSET -5.480453 -3.164139 3.164143
										CHANNELS 3 Xrotation Yrotation Zrotation
										JOINT newVegas:RightHandThumb3
										{
											OFFSET -5.159721 -2.978973 2.978967
											CHANNELS 3 Xrotation Yrotation Zrotation
											End Site
											{
												OFFSET -2.494507 5.926697 1.738678
											}
										}
									}
								}
								JOINT newVegas:RightHandIndex1
								{
									OFFSET -18.578728 -0.527832 5.208049
									CHANNELS 3 Xrotation Yrotation Zrotation
									JOINT newVegas:RightHandIndex2
									{
										OFFSET -3.192009 0.000000 0.000000
										CHANNELS 3 Xrotation Yrotation Zrotation
										JOINT newVegas:RightHandIndex3
										{
											OFFSET -3.835129 0.000000 0.000000
											CHANNELS 3 Xrotation Yrotation Zrotation
											End Site
											{
												OFFSET 0.034599 3.816971 0.371180
											}
										}
									}
								}
								JOINT newVegas:RightHandMiddle1
								{
									OFFSET -18.476105 0.000000 0.000000
									CHANNELS 3 Xrotation Yrotation Zrotation
									JOINT newVegas:RightHandMiddle2
									{
										OFFSET -3.324875 0.000000 0.000000
										CHANNELS 3 Xrotation Yrotation Zrotation
										JOINT newVegas:RightHandMiddle3
										{
											OFFSET -4.596550 0.000000 0.000000
											CHANNELS 3 Xrotation Yrotation Zrotation
											End Site
											{
												OFFSET -0.057701 4.578827 0.399218
											}
										}
									}
								}
								JOINT newVegas:RightHandRing1
								{
									OFFSET -17.732719 0.121887 -4.201567
									CHANNELS 3 Xrotation Yrotation Zrotation
									JOINT newVegas:RightHandRing2
									{
										OFFSET -2.733170 0.000000 0.000000
										CHANNELS 3 Xrotation Yrotation Zrotation
										JOINT newVegas:RightHandRing3
										{
											OFFSET -3.178268 0.000000 0.000000
											CHANNELS 3 Xrotation Yrotation Zrotation
											End Site
											{
												OFFSET -0.119102 3.170624 0.185394
											}
										}
									}
								}
								JOINT newVegas:RightHandPinky1
								{
									OFFSET -15.989624 -0.606689 -7.535461
									CHANNELS 3 Xrotation Yrotation Zrotation
									JOINT newVegas:RightHandPinky2
									{
										OFFSET -2.538986 0.000000 0.000000
										CHANNELS 3 Xrotation Yrotation Zrotation
										JOINT newVegas:RightHandPinky3
										{
											OFFSET -2.593102 0.000000 0.000000
											CHANNELS 3 Xrotation Yrotation Zrotation
											End Site
											{
												OFFSET 0.150902 2.584198 0.152708
											}
										}
									}
								}
							}
							JOINT newVegas:Right_CapeC
							{
								OFFSET -15.715958 -8.608795 -6.935905
								CHANNELS 3 Xrotation Yrotation Zrotation
								JOINT newVegas:Right_CapeC1
								{
									OFFSET 0.000000 -8.688499 0.000000
									CHANNELS 3 Xrotation Yrotation Zrotation
									End Site
									{
										OFFSET 0.000000 8.688499 0.000000
									}
								}
							}
							JOINT newVegas:Right_Sleeve
							{
								OFFSET -0.267448 -0.649994 0.577675
								CHANNELS 3 Xrotation Yrotation Zrotation
								End Site
								{
									OFFSET 0.000000 15.991302 0.000000
								}
							}
						}
						JOINT newVegas:Right_CapeA
						{
							OFFSET -5.115540 -8.608795 -10.395824
							CHANNELS 3 Xrotation Yrotation Zrotation
							JOINT newVegas:Right_CapeA1
							{
								OFFSET 0.000000 -8.688499 0.000000
								CHANNELS 3 Xrotation Yrotation Zrotation
								End Site
								{
									OFFSET 0.000000 8.688499 0.000000
								}
							}
						}
						JOINT newVegas:Right_CapeB
						{
							OFFSET -26.118187 -8.608795 -7.079266
							CHANNELS 3 Xrotation Yrotation Zrotation
							JOINT newVegas:Right_CapeB1
							{
								OFFSET 0.000000 -8.688499 0.000000
								CHANNELS 3 Xrotation Yrotation Zrotation
								End Site
								{
									OFFSET 0.000000 8.688499 0.000000
								}
							}
						}
					}
				}
				JOINT newVegas:Left_Collar
				{
					OFFSET 18.625099 8.655502 8.828100
					CHANNELS 3 Xrotation Yrotation Zrotation
					JOINT newVegas:Left_Collar1
					{
						OFFSET 14.783401 10.540405 -1.259500
						CHANNELS 3 Xrotation Yrotation Zrotation
						End Site
						{
							OFFSET 0.000000 18.199875 0.000000
						}
					}
				}
				JOINT newVegas:Collar_Back
				{
					OFFSET 0.000000 15.630707 -20.132601
					CHANNELS 3 Xrotation Yrotation Zrotation
					End Site
					{
						OFFSET 0.000000 22.523010 0.000000
					}
				}
				JOINT newVegas:Left_Peck
				{
					OFFSET 17.239599 -5.132599 25.482599
					CHANNELS 3 Xrotation Yrotation Zrotation
					End Site
					{
						OFFSET 0.000000 22.523010 0.000000
					}
				}
				JOINT newVegas:Right_Peck
				{
					OFFSET -17.239599 -5.132202 25.482599
					CHANNELS 3 Xrotation Yrotation Zrotation
					End Site
					{
						OFFSET 0.000000 22.523010 0.000000
					}
				}
				JOINT newVegas:Right_Collar
				{
					OFFSET -18.625099 8.655792 8.828100
					CHANNELS 3 Xrotation Yrotation Zrotation
					JOINT newVegas:Right_Collar1
					{
						OFFSET -14.783401 10.539993 -1.259500
						CHANNELS 3 Xrotation Yrotation Zrotation
						End Site
						{
							OFFSET 0.000000 18.199631 0.000000
						}
					}
				}
			}
		}
		JOINT newVegas:Belly
		{
			OFFSET 0.000000 -6.540398 9.014299
			CHANNELS 3 Xrotation Yrotation Zrotation
			End Site
			{
				OFFSET 0.000000 11.566666 0.000000
			}
		}
	}
	JOINT newVegas:ElvisFacialAnim_Joint
	{
		OFFSET 1.000000 -95.330101 -8.825800
		CHANNELS 3 Xrotation Yrotation Zrotation
		End Site
		{
			OFFSET 0.000000 35.315800 0.000000
		}
	}
}
MOTION
Frames: 4
Frame Time: 0.033333
-2.382253 46.715073 2.956793 -17.002187 -38.833795 -6.373650 0.000000 0.000001 -0.000000 -83.191089 -30.314155 39.198626 129.424531 -2.932420 -4.751267 -12.249575 -1.832266 -16.376845 0.000000 0.000000 0.000000 -0.000001 -0.000000 -0.000001 -30.176582 45.529795 -5.539962 136.228943 -5.114461 -0.847612 -29.919398 0.031680 6.215009 0.000000 0.000000 -0.000001 0.000001 0.000001 -0.000001 14.730857 0.948067 -4.152272 15.337994 5.571960 -2.765597 18.929407 5.562608 -3.514061 -0.438941 0.776386 1.410959 -0.438981 0.776381 1.410938 -0.000000 -0.000004 0.000003 -0.439020 0.776536 1.410902 -0.438909 0.776267 1.410945 0.000000 0.000001 -0.000001 -0.000000 -0.000004 0.000003 -2.985221 -6.651922 0.026173 -62.099581 -22.604395 -78.018150 -93.706487 14.293621 -75.826438 -24.663425 0.212644 13.190210 0.699120 9.503418 -2.418103 5.975195 12.647530 1.348345 -0.000000 -0.000002 -0.000003 9.479711 -1.289784 -20.785555 0.709483 2.796438 -28.467091 -0.000001 -0.000003 -0.000000 10.058160 -1.800611 -20.644723 1.774257 4.200489 -45.782089 -0.000000 0.000000 -0.000000 1.254227 -0.073731 -17.945776 3.754108 5.463584 -68.965301 0.000002 0.000001 0.000002 -7.938261 1.609075 -6.495667 2.210589 4.583672 -51.475157 -0.000003 -0.000005 -0.000001 -0.000000 -0.000002 0.000000 -0.000000 -0.000002 0.000000 0.000000 -0.000001 0.000000 0.000001 0.000001 -0.000002 0.000001 -0.000000 -0.000003 0.000001 0.000001 -0.000002 -0.000001 0.000000 -0.000001 -6.876193 -5.830241 -1.756293 1.616483 47.696925 42.439964 38.354436 127.949182 -46.021828 -4.654459 14.777415 -16.067969 13.942496 -4.273663 -5.300357 7.113144 -20.767530 -2.619514 0.000001 -0.000003 -0.000001 0.357767 -5.832684 5.175869 0.094330 -0.933626 11.539836 0.000001 -0.000001 0.000001 3.764105 -12.080491 1.143779 5.714261 -4.535851 103.133486 0.000000 -0.000000 -0.000002 -12.155607 -12.623932 9.228373 6.566874 -4.248362 114.232312 0.000003 -0.000001 0.000004 -17.635743 -10.496820 3.325431 4.993632 -4.644956 94.147970 0.000001 0.000003 -0.000001 0.000000 -0.000000 -0.000002 -0.000000 0.000000 -0.000002 0.000000 0.000000 -0.000002 0.000001 0.000001 0.000000 0.000001 0.000002 0.000001 0.000001 0.000001 0.000000 0.000001 0.000002 0.000001 0.000003 -0.000000 -0.000000 0.000003 -0.000000 -0.000000 0.000003 -0.000000 -0.000000 0.000003 -0.000000 -0.000000 0.000003 -0.000000 -0.000000 0.000003 -0.000000 -0.000000 0.000003 -0.000000 -0.000000 -0.000000 0.000002 -0.000000 0.000000 0.000001 -0.000000 
-2.670079 47.164085 3.096237 -15.112038 -33.539856 -4.170137 -0.000001 -0.000001 -0.000000 -89.723428 -27.087842 33.953458 127.042748 -2.979234 -4.665545 -9.854074 -1.643794 -12.622153 0.000000 0.000000 0.000000 -0.000001 -0.000000 -0.000001 -21.392142 42.245611 -12.133840 135.221777 -5.334309 2.391416 -33.127203 -0.429101 6.327490 -0.000002 0.000000 -0.000000 -0.000000 0.000005 -0.000002 16.890146 0.496522 -0.681532 13.806030 5.946382 -3.993837 18.102076 5.703068 -4.798887 -0.455811 0.832609 1.330311 -0.455811 0.832604 1.330313 0.000004 -0.000000 0.000000 -0.455812 0.832594 1.330311 -0.455757 0.832603 1.330312 -0.000003 0.000000 -0.000000 0.000004 -0.000000 -0.000001 -2.947129 -6.507364 0.033100 -63.297938 -20.916247 -83.314087 -93.159689 12.258096 -76.042040 -22.190456 2.571672 16.569551 0.699123 9.503413 -2.418107 5.975195 12.647537 1.348345 0.000002 -0.000002 0.000002 9.479709 -1.289788 -20.785560 0.709483 2.796436 -28.467090 0.000000 0.000001 0.000001 10.058162 -1.800621 -20.644723 1.774258 4.200493 -45.782089 0.000003 -0.000003 -0.000000 1.254229 -0.073741 -17.945779 3.754108 5.463589 -68.965301 -0.000002 0.000001 0.000000 -7.938261 1.609073 -6.495670 2.210594 4.583673 -51.475167 -0.000000 -0.000003 0.000000 -0.000000 0.000004 -0.000002 -0.000000 0.000004 -0.000002 -0.000000 0.000004 -0.000002 0.000001 0.000001 -0.000001 0.000001 0.000000 -0.000002 0.000001 0.000001 -0.000001 -0.000001 0.000000 -0.000001 -6.335711 -5.338984 -1.563754 -0.652605 40.928119 48.116412 36.670251 128.842831 -39.578132 -4.930197 14.088996 -16.563760 13.942492 -4.273669 -5.300355 7.113143 -20.767525 -2.619513 -0.000000 -0.000001 0.000001 0.357765 -5.832685 5.175870 0.094332 -0.933627 11.539833 -0.000001 -0.000000 -0.000001 3.764105 -12.080491 1.143779 5.714260 -4.535851 103.133493 0.000000 0.000001 -0.000001 -12.155605 -12.623931 9.228374 6.566873 -4.248366 114.232305 0.000002 -0.000001 -0.000001 -17.635745 -10.496820 3.325431 4.993632 -4.644955 94.147970 0.000001 -0.000000 0.000001 0.000000 0.000000 -0.000000 0.000000 0.000000 -0.000000 0.000000 0.000001 -0.000000 -0.000001 0.000000 -0.000000 -0.000001 0.000001 -0.000002 -0.000001 0.000000 -0.000000 -0.000000 0.000001 -0.000000 0.000001 0.000001 -0.000001 0.000001 0.000001 -0.000001 0.000001 0.000001 -0.000001 0.000001 0.000001 -0.000001 0.000001 0.000001 -0.000001 0.000001 0.000001 -0.000001 0.000001 0.000001 -0.000001 0.000000 -0.000000 0.000000 -0.000001 -0.000001 -0.000000 
-3.459591 47.666466 3.050163 -12.344911 -26.463945 -0.932179 0.000001 -0.000000 -0.000000 -96.582509 -22.308750 28.143654 122.499716 -3.475938 -4.684984 -5.521695 -1.660800 -9.020939 0.000000 0.000000 0.000000 -0.000000 0.000000 0.000001 -12.747497 36.726067 -17.643350 134.167551 -6.038912 6.653115 -36.991215 -1.480661 6.796322 -0.000001 0.000001 -0.000000 0.000001 0.000001 -0.000001 18.729472 0.358894 4.341636 11.636979 5.995333 -5.255259 16.973514 5.510889 -6.044565 -0.484587 0.947081 1.175236 -0.484583 0.947079 1.175240 -0.000000 -0.000000 0.000000 -0.484488 0.947081 1.175238 -0.484587 0.947073 1.175236 -0.000000 -0.000001 0.000001 -0.000000 -0.000000 -0.000000 -2.906736 -6.355875 0.040176 -65.130225 -20.702549 -86.688973 -94.024603 13.683250 -74.003276 -19.133919 4.547180 18.520203 0.699123 9.503413 -2.418103 5.975193 12.647530 1.348345 0.000001 0.000002 0.000003 9.479712 -1.289785 -20.785555 0.709485 2.796435 -28.467091 -0.000001 0.000001 0.000000 10.058161 -1.800619 -20.644721 1.774254 4.200491 -45.782092 0.000004 -0.000002 0.000002 1.254231 -0.073736 -17.945776 3.754109 5.463582 -68.965301 0.000002 -0.000001 -0.000001 -7.938258 1.609072 -6.495671 2.210592 4.583673 -51.475161 -0.000001 -0.000003 0.000002 -0.000000 -0.000002 0.000001 -0.000000 -0.000002 0.000001 -0.000000 -0.000002 0.000001 0.000002 0.000003 -0.000001 0.000002 0.000002 -0.000001 0.000002 0.000003 -0.000001 0.000000 0.000002 0.000001 -5.323644 -4.547703 -1.242592 -1.857813 36.512569 51.182326 34.601325 130.190632 -35.237264 -4.828197 12.084420 -17.901729 13.942496 -4.273665 -5.300354 7.113143 -20.767527 -2.619514 -0.000002 -0.000001 0.000001 0.357765 -5.832684 5.175868 0.094330 -0.933627 11.539833 -0.000002 0.000001 0.000000 3.764102 -12.080489 1.143780 5.714261 -4.535850 103.133493 0.000001 0.000000 -0.000001 -12.155608 -12.623935 9.228374 6.566871 -4.248368 114.232312 0.000002 0.000001 0.000002 -17.635743 -10.496823 3.325431 4.993633 -4.644957 94.147970 -0.000002 0.000002 -0.000001 0.000001 0.000002 0.000001 0.000001 0.000001 0.000001 0.000001 0.000002 -0.000001 0.000001 0.000001 0.000000 0.000001 0.000000 0.000001 0.000001 0.000001 0.000000 0.000001 -0.000000 0.000001 0.000001 0.000000 0.000001 0.000001 0.000000 0.000001 0.000001 0.000000 0.000001 0.000001 0.000000 0.000001 0.000001 0.000000 0.000001 0.000001 0.000000 0.000001 0.000001 0.000000 0.000001 -0.000000 -0.000001 -0.000001 0.000001 -0.000000 -0.000000 
-4.600661 47.980843 2.924036 -10.417584 -20.008769 1.560024 -0.000001 0.000000 0.000000 -101.257718 -17.941365 24.789156 116.947059 -4.951241 -4.501028 -0.263522 -3.010185 -6.924333 0.000000 -0.000000 -0.000000 -0.000000 0.000000 0.000000 -7.067823 30.455359 -19.272654 133.295568 -7.635411 10.055921 -40.136961 -2.789441 7.462027 -0.000001 0.000000 0.000001 0.000001 -0.000001 -0.000000 19.320700 0.822645 8.320061 10.123211 5.876994 -5.861235 16.308316 5.400005 -6.649120 -0.510117 1.074330 1.009038 -0.510104 1.074330 1.009049 0.000001 -0.000000 -0.000001 -0.510046 1.074324 1.009040 -0.510194 1.074346 1.009037 -0.000002 0.000000 0.000001 0.000001 -0.000000 0.000000 -2.863511 -6.192554 0.047616 -66.035191 -20.531062 -87.969531 -94.535467 14.218947 -72.652845 -18.698015 4.819707 18.477504 0.699122 9.503412 -2.418104 5.975197 12.647530 1.348345 -0.000001 -0.000003 -0.000006 9.479712 -1.289794 -20.785557 0.709485 2.796431 -28.467091 -0.000001 0.000001 0.000001 10.058162 -1.800617 -20.644720 1.774256 4.200489 -45.782092 0.000001 0.000002 0.000000 1.254231 -0.073738 -17.945777 3.754110 5.463585 -68.965301 -0.000001 0.000003 -0.000000 -7.938257 1.609070 -6.495670 2.210589 4.583671 -51.475161 0.000000 -0.000005 -0.000003 0.000001 0.000004 0.000000 0.000001 0.000004 0.000000 0.000001 0.000004 0.000001 0.000000 0.000002 -0.000002 0.000000 0.000001 -0.000002 0.000000 0.000002 -0.000002 -0.000002 0.000001 -0.000001 -4.719209 -3.713226 -1.027655 -1.287906 35.817737 50.459129 32.856871 131.572284 -34.565572 -4.429901 9.942999 -18.059485 13.942494 -4.273666 -5.300358 7.113143 -20.767535 -2.619513 0.000001 0.000001 -0.000002 0.357765 -5.832686 5.175864 0.094329 -0.933625 11.539835 -0.000001 0.000001 0.000003 3.764104 -12.080494 1.143777 5.714260 -4.535849 103.133486 0.000001 0.000000 0.000001 -12.155608 -12.623934 9.228373 6.566875 -4.248368 114.232318 0.000003 0.000001 -0.000002 -17.635747 -10.496822 3.325427 4.993638 -4.644957 94.147963 0.000002 -0.000000 0.000001 0.000000 0.000000 0.000002 0.000001 0.000002 0.000004 0.000000 0.000001 0.000002 0.000002 0.000000 -0.000000 0.000003 0.000001 0.000000 0.000002 0.000000 -0.000000 0.000003 0.000001 0.000000 0.000002 0.000000 -0.000000 0.000002 0.000000 -0.000000 0.000002 0.000000 -0.000000 0.000002 0.000000 -0.000000 0.000002 0.000000 -0.000000 0.000002 0.000000 -0.000000 0.000002 0.000000 -0.000000 0.000001 0.000000 0.000000 -0.000001 0.000000 0.000000 
